<?xml version="1.0" standalone="no"?>
<!DOCTYPE svg PUBLIC "-//W3C//DTD SVG 20010904//EN"
 "http://www.w3.org/TR/2001/REC-SVG-20010904/DTD/svg10.dtd">
<svg version="1.0" xmlns="http://www.w3.org/2000/svg"
 width="670.000000pt" height="670.000000pt" viewBox="0 0 670.000000 670.000000"
 preserveAspectRatio="xMidYMid meet">

<g transform="translate(0.000000,670.000000) scale(0.100000,-0.100000)"
fill="#000000" stroke="none">
<path d="M2080 4893 c-159 -27 -308 -137 -399 -297 -160 -282 -173 -661 -40
-1186 146 -576 424 -1178 872 -1890 115 -183 380 -581 384 -577 2 2 -105 249
-238 548 -576 1299 -707 1646 -791 2099 -29 153 -31 401 -5 505 52 207 203
376 362 406 83 16 154 -7 382 -122 297 -150 447 -196 678 -205 66 -3 140 -1
165 4 37 8 40 10 15 11 -48 2 -224 47 -295 77 -144 58 -230 120 -466 337 -261
239 -437 321 -624 290z"/>
<path d="M4390 4771 c-47 -10 -155 -44 -240 -76 -240 -89 -376 -132 -490 -155
-122 -25 -317 -36 -410 -22 -36 5 -66 8 -68 7 -6 -6 94 -56 157 -79 168 -61
384 -61 701 -1 253 48 380 52 455 15 89 -44 139 -135 172 -312 21 -114 24
-512 5 -683 -62 -558 -139 -885 -385 -1640 -52 -159 -98 -306 -101 -325 l-7
-35 27 45 c98 164 308 617 420 903 277 711 425 1449 374 1867 -50 407 -249
567 -610 491z"/>
<path d="M3202 2605 c-28 -15 -66 -43 -82 -63 -80 -96 -139 -274 -160 -486
-15 -147 -8 -481 14 -656 18 -142 86 -503 93 -496 3 3 0 99 -7 213 -16 266
-17 747 -1 883 40 346 118 496 267 508 44 4 64 0 110 -23 163 -80 322 -327
550 -852 43 -100 80 -180 82 -178 6 6 -86 270 -140 405 -116 285 -250 511
-380 636 -130 126 -242 161 -346 109z"/>
</g>
</svg>
